<mxfile host="app.diagrams.net" agent="Mozilla/5.0 (Windows NT 10.0; Win64; x64) AppleWebKit/537.36 (KHTML, like Gecko) Chrome/128.0.0.0 Safari/537.36" version="24.7.14" pages="4">
  <diagram name="Página-1" id="qACheUv4EkO8liwAzUcL">
    <mxGraphModel dx="2284" dy="772" grid="1" gridSize="10" guides="1" tooltips="1" connect="1" arrows="1" fold="1" page="1" pageScale="1" pageWidth="850" pageHeight="1100" math="0" shadow="0">
      <root>
        <mxCell id="0" />
        <mxCell id="1" parent="0" />
        <mxCell id="7ghBcvJQ042745n4Hg-b-3" value="Salidas - generación de valor" style="swimlane;whiteSpace=wrap;html=1;fillColor=#FFC000;fontColor=#000000;strokeColor=#000000;" vertex="1" parent="1">
          <mxGeometry x="610" y="190" width="210" height="680" as="geometry" />
        </mxCell>
        <mxCell id="7ghBcvJQ042745n4Hg-b-4" value="Estratégicos" style="swimlane;fillColor=#FFC000;" vertex="1" parent="1">
          <mxGeometry x="60" y="190" width="540" height="100" as="geometry" />
        </mxCell>
        <mxCell id="7ghBcvJQ042745n4Hg-b-5" value="Administrativos" style="swimlane;fillColor=#FFC000;" vertex="1" parent="1">
          <mxGeometry x="60" y="650" width="540" height="130" as="geometry" />
        </mxCell>
        <mxCell id="7ghBcvJQ042745n4Hg-b-6" value="Operativos" style="swimlane;fillColor=#FFC000;" vertex="1" parent="1">
          <mxGeometry x="60" y="300" width="540" height="340" as="geometry">
            <mxRectangle x="60" y="300" width="100" height="30" as="alternateBounds" />
          </mxGeometry>
        </mxCell>
        <mxCell id="7ghBcvJQ042745n4Hg-b-9" value="" style="swimlane;startSize=0;" vertex="1" parent="1">
          <mxGeometry x="-170" y="180" width="1000" height="840" as="geometry">
            <mxRectangle x="-170" y="180" width="50" height="40" as="alternateBounds" />
          </mxGeometry>
        </mxCell>
        <mxCell id="7ghBcvJQ042745n4Hg-b-19" style="edgeStyle=orthogonalEdgeStyle;rounded=0;orthogonalLoop=1;jettySize=auto;html=1;exitX=1;exitY=0.5;exitDx=0;exitDy=0;entryX=0;entryY=0.5;entryDx=0;entryDy=0;" edge="1" parent="7ghBcvJQ042745n4Hg-b-9" source="7ghBcvJQ042745n4Hg-b-12" target="7ghBcvJQ042745n4Hg-b-15">
          <mxGeometry relative="1" as="geometry" />
        </mxCell>
        <mxCell id="7ghBcvJQ042745n4Hg-b-20" style="edgeStyle=orthogonalEdgeStyle;rounded=0;orthogonalLoop=1;jettySize=auto;html=1;exitX=0.5;exitY=0;exitDx=0;exitDy=0;entryX=0.5;entryY=0;entryDx=0;entryDy=0;" edge="1" parent="7ghBcvJQ042745n4Hg-b-9" source="7ghBcvJQ042745n4Hg-b-12" target="7ghBcvJQ042745n4Hg-b-13">
          <mxGeometry relative="1" as="geometry" />
        </mxCell>
        <mxCell id="7ghBcvJQ042745n4Hg-b-21" style="edgeStyle=orthogonalEdgeStyle;rounded=0;orthogonalLoop=1;jettySize=auto;html=1;exitX=0.75;exitY=1;exitDx=0;exitDy=0;" edge="1" parent="7ghBcvJQ042745n4Hg-b-9" source="7ghBcvJQ042745n4Hg-b-12" target="7ghBcvJQ042745n4Hg-b-14">
          <mxGeometry relative="1" as="geometry" />
        </mxCell>
        <mxCell id="7ghBcvJQ042745n4Hg-b-26" style="edgeStyle=orthogonalEdgeStyle;rounded=0;orthogonalLoop=1;jettySize=auto;html=1;exitX=0.25;exitY=1;exitDx=0;exitDy=0;entryX=0.75;entryY=1;entryDx=0;entryDy=0;" edge="1" parent="7ghBcvJQ042745n4Hg-b-9" source="7ghBcvJQ042745n4Hg-b-12" target="7ghBcvJQ042745n4Hg-b-17">
          <mxGeometry relative="1" as="geometry">
            <Array as="points">
              <mxPoint x="270" y="440" />
              <mxPoint x="730" y="440" />
            </Array>
          </mxGeometry>
        </mxCell>
        <mxCell id="7ghBcvJQ042745n4Hg-b-31" style="edgeStyle=orthogonalEdgeStyle;rounded=0;orthogonalLoop=1;jettySize=auto;html=1;exitX=0.25;exitY=1;exitDx=0;exitDy=0;entryX=0.25;entryY=0;entryDx=0;entryDy=0;" edge="1" parent="7ghBcvJQ042745n4Hg-b-9" source="7ghBcvJQ042745n4Hg-b-12" target="7ghBcvJQ042745n4Hg-b-18">
          <mxGeometry relative="1" as="geometry" />
        </mxCell>
        <mxCell id="7ghBcvJQ042745n4Hg-b-12" value="(PR0001)&amp;nbsp;&lt;div&gt;&lt;span style=&quot;background-color: initial;&quot;&gt;Descubrimiento&lt;/span&gt;&lt;/div&gt;" style="rounded=1;html=1;whiteSpace=wrap;" vertex="1" parent="7ghBcvJQ042745n4Hg-b-9">
          <mxGeometry x="240" y="210" width="120" height="60" as="geometry" />
        </mxCell>
        <mxCell id="7ghBcvJQ042745n4Hg-b-29" style="edgeStyle=orthogonalEdgeStyle;rounded=0;orthogonalLoop=1;jettySize=auto;html=1;exitX=1;exitY=0.5;exitDx=0;exitDy=0;entryX=0;entryY=0.5;entryDx=0;entryDy=0;" edge="1" parent="7ghBcvJQ042745n4Hg-b-9" source="7ghBcvJQ042745n4Hg-b-16" target="7ghBcvJQ042745n4Hg-b-17">
          <mxGeometry relative="1" as="geometry" />
        </mxCell>
        <mxCell id="7ghBcvJQ042745n4Hg-b-33" style="edgeStyle=orthogonalEdgeStyle;rounded=0;orthogonalLoop=1;jettySize=auto;html=1;exitX=0.5;exitY=1;exitDx=0;exitDy=0;entryX=0.5;entryY=0;entryDx=0;entryDy=0;" edge="1" parent="7ghBcvJQ042745n4Hg-b-9" source="7ghBcvJQ042745n4Hg-b-16" target="7ghBcvJQ042745n4Hg-b-18">
          <mxGeometry relative="1" as="geometry">
            <Array as="points">
              <mxPoint x="540" y="520" />
              <mxPoint x="300" y="520" />
            </Array>
          </mxGeometry>
        </mxCell>
        <mxCell id="7ghBcvJQ042745n4Hg-b-16" value="(PR0005)&amp;nbsp;&lt;div&gt;&lt;span style=&quot;background-color: initial;&quot;&gt;Branding&lt;/span&gt;&lt;/div&gt;" style="rounded=1;html=1;whiteSpace=wrap;" vertex="1" parent="7ghBcvJQ042745n4Hg-b-9">
          <mxGeometry x="480" y="340" width="120" height="60" as="geometry" />
        </mxCell>
        <mxCell id="7ghBcvJQ042745n4Hg-b-22" style="edgeStyle=orthogonalEdgeStyle;rounded=0;orthogonalLoop=1;jettySize=auto;html=1;exitX=0.25;exitY=1;exitDx=0;exitDy=0;entryX=0.5;entryY=0;entryDx=0;entryDy=0;" edge="1" parent="7ghBcvJQ042745n4Hg-b-9" source="7ghBcvJQ042745n4Hg-b-15" target="7ghBcvJQ042745n4Hg-b-14">
          <mxGeometry relative="1" as="geometry" />
        </mxCell>
        <mxCell id="7ghBcvJQ042745n4Hg-b-24" style="edgeStyle=orthogonalEdgeStyle;rounded=0;orthogonalLoop=1;jettySize=auto;html=1;exitX=0.75;exitY=1;exitDx=0;exitDy=0;entryX=0.5;entryY=0;entryDx=0;entryDy=0;" edge="1" parent="7ghBcvJQ042745n4Hg-b-9" source="7ghBcvJQ042745n4Hg-b-15" target="7ghBcvJQ042745n4Hg-b-16">
          <mxGeometry relative="1" as="geometry" />
        </mxCell>
        <mxCell id="7ghBcvJQ042745n4Hg-b-27" style="edgeStyle=orthogonalEdgeStyle;rounded=0;orthogonalLoop=1;jettySize=auto;html=1;exitX=0.5;exitY=1;exitDx=0;exitDy=0;entryX=0.25;entryY=1;entryDx=0;entryDy=0;" edge="1" parent="7ghBcvJQ042745n4Hg-b-9" source="7ghBcvJQ042745n4Hg-b-15" target="7ghBcvJQ042745n4Hg-b-17">
          <mxGeometry relative="1" as="geometry">
            <Array as="points">
              <mxPoint x="450" y="430" />
              <mxPoint x="670" y="430" />
            </Array>
          </mxGeometry>
        </mxCell>
        <mxCell id="7ghBcvJQ042745n4Hg-b-32" style="edgeStyle=orthogonalEdgeStyle;rounded=0;orthogonalLoop=1;jettySize=auto;html=1;exitX=0.5;exitY=1;exitDx=0;exitDy=0;entryX=1;entryY=0.5;entryDx=0;entryDy=0;" edge="1" parent="7ghBcvJQ042745n4Hg-b-9" source="7ghBcvJQ042745n4Hg-b-15" target="7ghBcvJQ042745n4Hg-b-18">
          <mxGeometry relative="1" as="geometry" />
        </mxCell>
        <mxCell id="7ghBcvJQ042745n4Hg-b-15" value="(PR0002)&amp;nbsp;&lt;div&gt;&lt;span style=&quot;background-color: initial;&quot;&gt;Análisis y Ordenamiento&lt;/span&gt;&lt;/div&gt;" style="rounded=1;html=1;whiteSpace=wrap;" vertex="1" parent="7ghBcvJQ042745n4Hg-b-9">
          <mxGeometry x="390" y="210" width="120" height="60" as="geometry" />
        </mxCell>
        <mxCell id="7ghBcvJQ042745n4Hg-b-14" value="(PR0004)&amp;nbsp;&lt;div&gt;&lt;span style=&quot;background-color: initial;&quot;&gt;Community Management&lt;/span&gt;&lt;/div&gt;" style="rounded=1;html=1;whiteSpace=wrap;" vertex="1" parent="7ghBcvJQ042745n4Hg-b-9">
          <mxGeometry x="290" y="340" width="120" height="60" as="geometry" />
        </mxCell>
        <mxCell id="7ghBcvJQ042745n4Hg-b-25" style="edgeStyle=orthogonalEdgeStyle;rounded=0;orthogonalLoop=1;jettySize=auto;html=1;exitX=0.25;exitY=1;exitDx=0;exitDy=0;" edge="1" parent="7ghBcvJQ042745n4Hg-b-9" source="7ghBcvJQ042745n4Hg-b-13">
          <mxGeometry relative="1" as="geometry">
            <mxPoint x="540" y="340" as="targetPoint" />
          </mxGeometry>
        </mxCell>
        <mxCell id="7ghBcvJQ042745n4Hg-b-13" value="(PR0003) Taller de Personalidad" style="rounded=1;html=1;whiteSpace=wrap;" vertex="1" parent="7ghBcvJQ042745n4Hg-b-9">
          <mxGeometry x="570" y="210" width="120" height="60" as="geometry" />
        </mxCell>
        <mxCell id="7ghBcvJQ042745n4Hg-b-18" value="(PR0007)&amp;nbsp;&lt;div&gt;Eventos&lt;/div&gt;" style="rounded=1;html=1;whiteSpace=wrap;" vertex="1" parent="7ghBcvJQ042745n4Hg-b-9">
          <mxGeometry x="250" y="520" width="120" height="60" as="geometry" />
        </mxCell>
        <mxCell id="7ghBcvJQ042745n4Hg-b-17" value="(PR0006)&amp;nbsp;&lt;div&gt;Web Services&lt;/div&gt;" style="rounded=1;html=1;whiteSpace=wrap;" vertex="1" parent="7ghBcvJQ042745n4Hg-b-9">
          <mxGeometry x="640" y="340" width="120" height="60" as="geometry" />
        </mxCell>
        <mxCell id="7ghBcvJQ042745n4Hg-b-34" value="Gestion de redes sociales&lt;div&gt;&lt;br&gt;&lt;/div&gt;&lt;div style=&quot;&quot;&gt;Lanzamiento de Marca&lt;/div&gt;&lt;div style=&quot;&quot;&gt;&lt;br&gt;&lt;/div&gt;&lt;div style=&quot;&quot;&gt;Desarrollo de Marca&lt;/div&gt;&lt;div style=&quot;&quot;&gt;&lt;br&gt;&lt;/div&gt;&lt;div style=&quot;&quot;&gt;Posicionamiento de Mercado&lt;/div&gt;" style="text;html=1;align=left;verticalAlign=top;whiteSpace=wrap;rounded=0;" vertex="1" parent="7ghBcvJQ042745n4Hg-b-9">
          <mxGeometry x="30" y="100" width="180" height="340" as="geometry" />
        </mxCell>
        <mxCell id="7ghBcvJQ042745n4Hg-b-35" value="Gestion de redes sociales&lt;div&gt;&lt;br&gt;&lt;/div&gt;&lt;div style=&quot;&quot;&gt;Lanzamiento de Marca&lt;/div&gt;&lt;div style=&quot;&quot;&gt;&lt;br&gt;&lt;/div&gt;&lt;div style=&quot;&quot;&gt;Desarrollo de Marca&lt;/div&gt;&lt;div style=&quot;&quot;&gt;&lt;br&gt;&lt;/div&gt;&lt;div style=&quot;&quot;&gt;Posicionamiento de Mercado&lt;/div&gt;" style="text;html=1;align=left;verticalAlign=top;whiteSpace=wrap;rounded=0;" vertex="1" parent="7ghBcvJQ042745n4Hg-b-9">
          <mxGeometry x="800" y="80" width="180" height="340" as="geometry" />
        </mxCell>
        <mxCell id="7ghBcvJQ042745n4Hg-b-7" value="Control" style="swimlane;fillColor=#FFC000;" vertex="1" parent="7ghBcvJQ042745n4Hg-b-9">
          <mxGeometry x="20" y="710" width="970" height="120" as="geometry" />
        </mxCell>
        <mxCell id="7ghBcvJQ042745n4Hg-b-8" value="Soporte" style="swimlane;fillColor=#FFC000;" vertex="1" parent="1">
          <mxGeometry x="60" y="790" width="540" height="80" as="geometry">
            <mxRectangle x="60" y="790" width="80" height="30" as="alternateBounds" />
          </mxGeometry>
        </mxCell>
        <mxCell id="7ghBcvJQ042745n4Hg-b-38" value="Necesidades de mercado" style="swimlane;whiteSpace=wrap;html=1;fillColor=#FFC000;strokeColor=#000000;" vertex="1" parent="1">
          <mxGeometry x="-150" y="190" width="200" height="680" as="geometry" />
        </mxCell>
      </root>
    </mxGraphModel>
  </diagram>
  <diagram name="Finca San Juan Bosco" id="jCxNES3dfq-0GgchhEaF">
    <mxGraphModel dx="2899" dy="1103" grid="1" gridSize="10" guides="1" tooltips="1" connect="1" arrows="1" fold="1" page="1" pageScale="1" pageWidth="850" pageHeight="1100" math="0" shadow="0">
      <root>
        <mxCell id="rOLu9eMjw-gonEeQVmoe-0" />
        <mxCell id="rOLu9eMjw-gonEeQVmoe-1" parent="rOLu9eMjw-gonEeQVmoe-0" />
        <mxCell id="rOLu9eMjw-gonEeQVmoe-2" value="Salidas - generación de valor" style="swimlane;whiteSpace=wrap;html=1;fillColor=#FFC000;fontColor=#000000;strokeColor=#000000;" vertex="1" parent="rOLu9eMjw-gonEeQVmoe-1">
          <mxGeometry x="610" y="190" width="210" height="680" as="geometry" />
        </mxCell>
        <mxCell id="rOLu9eMjw-gonEeQVmoe-3" value="Estratégicos" style="swimlane;fillColor=#FFC000;" vertex="1" parent="rOLu9eMjw-gonEeQVmoe-1">
          <mxGeometry x="60" y="190" width="540" height="100" as="geometry" />
        </mxCell>
        <mxCell id="rOLu9eMjw-gonEeQVmoe-4" value="Administrativos" style="swimlane;fillColor=#FFC000;" vertex="1" parent="rOLu9eMjw-gonEeQVmoe-1">
          <mxGeometry x="60" y="650" width="540" height="130" as="geometry" />
        </mxCell>
        <mxCell id="rOLu9eMjw-gonEeQVmoe-5" value="Operativos" style="swimlane;fillColor=#FFC000;" vertex="1" parent="rOLu9eMjw-gonEeQVmoe-1">
          <mxGeometry x="60" y="300" width="540" height="340" as="geometry">
            <mxRectangle x="60" y="300" width="100" height="30" as="alternateBounds" />
          </mxGeometry>
        </mxCell>
        <mxCell id="rOLu9eMjw-gonEeQVmoe-6" value="" style="swimlane;startSize=0;" vertex="1" parent="rOLu9eMjw-gonEeQVmoe-1">
          <mxGeometry x="-170" y="180" width="1000" height="840" as="geometry">
            <mxRectangle x="-170" y="180" width="50" height="40" as="alternateBounds" />
          </mxGeometry>
        </mxCell>
        <mxCell id="rOLu9eMjw-gonEeQVmoe-7" style="edgeStyle=orthogonalEdgeStyle;rounded=0;orthogonalLoop=1;jettySize=auto;html=1;exitX=1;exitY=0.5;exitDx=0;exitDy=0;entryX=0;entryY=0.5;entryDx=0;entryDy=0;" edge="1" parent="rOLu9eMjw-gonEeQVmoe-6" source="rOLu9eMjw-gonEeQVmoe-12" target="rOLu9eMjw-gonEeQVmoe-20">
          <mxGeometry relative="1" as="geometry" />
        </mxCell>
        <mxCell id="rOLu9eMjw-gonEeQVmoe-8" style="edgeStyle=orthogonalEdgeStyle;rounded=0;orthogonalLoop=1;jettySize=auto;html=1;exitX=0.5;exitY=0;exitDx=0;exitDy=0;entryX=0.5;entryY=0;entryDx=0;entryDy=0;" edge="1" parent="rOLu9eMjw-gonEeQVmoe-6" source="rOLu9eMjw-gonEeQVmoe-12" target="rOLu9eMjw-gonEeQVmoe-23">
          <mxGeometry relative="1" as="geometry" />
        </mxCell>
        <mxCell id="rOLu9eMjw-gonEeQVmoe-9" style="edgeStyle=orthogonalEdgeStyle;rounded=0;orthogonalLoop=1;jettySize=auto;html=1;exitX=0.75;exitY=1;exitDx=0;exitDy=0;" edge="1" parent="rOLu9eMjw-gonEeQVmoe-6" source="rOLu9eMjw-gonEeQVmoe-12" target="rOLu9eMjw-gonEeQVmoe-21">
          <mxGeometry relative="1" as="geometry" />
        </mxCell>
        <mxCell id="rOLu9eMjw-gonEeQVmoe-10" style="edgeStyle=orthogonalEdgeStyle;rounded=0;orthogonalLoop=1;jettySize=auto;html=1;exitX=0.25;exitY=1;exitDx=0;exitDy=0;entryX=0.75;entryY=1;entryDx=0;entryDy=0;" edge="1" parent="rOLu9eMjw-gonEeQVmoe-6" source="rOLu9eMjw-gonEeQVmoe-12" target="rOLu9eMjw-gonEeQVmoe-25">
          <mxGeometry relative="1" as="geometry">
            <Array as="points">
              <mxPoint x="270" y="440" />
              <mxPoint x="730" y="440" />
            </Array>
          </mxGeometry>
        </mxCell>
        <mxCell id="rOLu9eMjw-gonEeQVmoe-11" style="edgeStyle=orthogonalEdgeStyle;rounded=0;orthogonalLoop=1;jettySize=auto;html=1;exitX=0.25;exitY=1;exitDx=0;exitDy=0;entryX=0.25;entryY=0;entryDx=0;entryDy=0;" edge="1" parent="rOLu9eMjw-gonEeQVmoe-6" source="rOLu9eMjw-gonEeQVmoe-12" target="rOLu9eMjw-gonEeQVmoe-24">
          <mxGeometry relative="1" as="geometry" />
        </mxCell>
        <mxCell id="rOLu9eMjw-gonEeQVmoe-12" value="(PR0001)&amp;nbsp;&lt;div&gt;&lt;span style=&quot;background-color: initial;&quot;&gt;Descubrimiento&lt;/span&gt;&lt;/div&gt;" style="rounded=1;html=1;whiteSpace=wrap;" vertex="1" parent="rOLu9eMjw-gonEeQVmoe-6">
          <mxGeometry x="240" y="210" width="120" height="60" as="geometry" />
        </mxCell>
        <mxCell id="rOLu9eMjw-gonEeQVmoe-13" style="edgeStyle=orthogonalEdgeStyle;rounded=0;orthogonalLoop=1;jettySize=auto;html=1;exitX=1;exitY=0.5;exitDx=0;exitDy=0;entryX=0;entryY=0.5;entryDx=0;entryDy=0;" edge="1" parent="rOLu9eMjw-gonEeQVmoe-6" source="rOLu9eMjw-gonEeQVmoe-15" target="rOLu9eMjw-gonEeQVmoe-25">
          <mxGeometry relative="1" as="geometry" />
        </mxCell>
        <mxCell id="rOLu9eMjw-gonEeQVmoe-14" style="edgeStyle=orthogonalEdgeStyle;rounded=0;orthogonalLoop=1;jettySize=auto;html=1;exitX=0.5;exitY=1;exitDx=0;exitDy=0;entryX=0.5;entryY=0;entryDx=0;entryDy=0;" edge="1" parent="rOLu9eMjw-gonEeQVmoe-6" source="rOLu9eMjw-gonEeQVmoe-15" target="rOLu9eMjw-gonEeQVmoe-24">
          <mxGeometry relative="1" as="geometry">
            <Array as="points">
              <mxPoint x="540" y="520" />
              <mxPoint x="300" y="520" />
            </Array>
          </mxGeometry>
        </mxCell>
        <mxCell id="rOLu9eMjw-gonEeQVmoe-15" value="(PR0005)&amp;nbsp;&lt;div&gt;&lt;span style=&quot;background-color: initial;&quot;&gt;Branding&lt;/span&gt;&lt;/div&gt;" style="rounded=1;html=1;whiteSpace=wrap;" vertex="1" parent="rOLu9eMjw-gonEeQVmoe-6">
          <mxGeometry x="480" y="340" width="120" height="60" as="geometry" />
        </mxCell>
        <mxCell id="rOLu9eMjw-gonEeQVmoe-16" style="edgeStyle=orthogonalEdgeStyle;rounded=0;orthogonalLoop=1;jettySize=auto;html=1;exitX=0.25;exitY=1;exitDx=0;exitDy=0;entryX=0.5;entryY=0;entryDx=0;entryDy=0;" edge="1" parent="rOLu9eMjw-gonEeQVmoe-6" source="rOLu9eMjw-gonEeQVmoe-20" target="rOLu9eMjw-gonEeQVmoe-21">
          <mxGeometry relative="1" as="geometry" />
        </mxCell>
        <mxCell id="rOLu9eMjw-gonEeQVmoe-17" style="edgeStyle=orthogonalEdgeStyle;rounded=0;orthogonalLoop=1;jettySize=auto;html=1;exitX=0.75;exitY=1;exitDx=0;exitDy=0;entryX=0.5;entryY=0;entryDx=0;entryDy=0;" edge="1" parent="rOLu9eMjw-gonEeQVmoe-6" source="rOLu9eMjw-gonEeQVmoe-20" target="rOLu9eMjw-gonEeQVmoe-15">
          <mxGeometry relative="1" as="geometry" />
        </mxCell>
        <mxCell id="rOLu9eMjw-gonEeQVmoe-18" style="edgeStyle=orthogonalEdgeStyle;rounded=0;orthogonalLoop=1;jettySize=auto;html=1;exitX=0.5;exitY=1;exitDx=0;exitDy=0;entryX=0.25;entryY=1;entryDx=0;entryDy=0;" edge="1" parent="rOLu9eMjw-gonEeQVmoe-6" source="rOLu9eMjw-gonEeQVmoe-20" target="rOLu9eMjw-gonEeQVmoe-25">
          <mxGeometry relative="1" as="geometry">
            <Array as="points">
              <mxPoint x="450" y="430" />
              <mxPoint x="670" y="430" />
            </Array>
          </mxGeometry>
        </mxCell>
        <mxCell id="rOLu9eMjw-gonEeQVmoe-19" style="edgeStyle=orthogonalEdgeStyle;rounded=0;orthogonalLoop=1;jettySize=auto;html=1;exitX=0.5;exitY=1;exitDx=0;exitDy=0;entryX=1;entryY=0.5;entryDx=0;entryDy=0;" edge="1" parent="rOLu9eMjw-gonEeQVmoe-6" source="rOLu9eMjw-gonEeQVmoe-20" target="rOLu9eMjw-gonEeQVmoe-24">
          <mxGeometry relative="1" as="geometry" />
        </mxCell>
        <mxCell id="rOLu9eMjw-gonEeQVmoe-20" value="(PR0002)&amp;nbsp;&lt;div&gt;&lt;span style=&quot;background-color: initial;&quot;&gt;Análisis y Ordenamiento&lt;/span&gt;&lt;/div&gt;" style="rounded=1;html=1;whiteSpace=wrap;" vertex="1" parent="rOLu9eMjw-gonEeQVmoe-6">
          <mxGeometry x="390" y="210" width="120" height="60" as="geometry" />
        </mxCell>
        <mxCell id="rOLu9eMjw-gonEeQVmoe-21" value="(PR0004)&amp;nbsp;&lt;div&gt;&lt;span style=&quot;background-color: initial;&quot;&gt;Community Management&lt;/span&gt;&lt;/div&gt;" style="rounded=1;html=1;whiteSpace=wrap;" vertex="1" parent="rOLu9eMjw-gonEeQVmoe-6">
          <mxGeometry x="290" y="340" width="120" height="60" as="geometry" />
        </mxCell>
        <mxCell id="rOLu9eMjw-gonEeQVmoe-22" style="edgeStyle=orthogonalEdgeStyle;rounded=0;orthogonalLoop=1;jettySize=auto;html=1;exitX=0.25;exitY=1;exitDx=0;exitDy=0;" edge="1" parent="rOLu9eMjw-gonEeQVmoe-6" source="rOLu9eMjw-gonEeQVmoe-23">
          <mxGeometry relative="1" as="geometry">
            <mxPoint x="540" y="340" as="targetPoint" />
          </mxGeometry>
        </mxCell>
        <mxCell id="rOLu9eMjw-gonEeQVmoe-23" value="(PR0003) Taller de Personalidad" style="rounded=1;html=1;whiteSpace=wrap;" vertex="1" parent="rOLu9eMjw-gonEeQVmoe-6">
          <mxGeometry x="570" y="210" width="120" height="60" as="geometry" />
        </mxCell>
        <mxCell id="rOLu9eMjw-gonEeQVmoe-24" value="(PR0007)&amp;nbsp;&lt;div&gt;Eventos&lt;/div&gt;" style="rounded=1;html=1;whiteSpace=wrap;" vertex="1" parent="rOLu9eMjw-gonEeQVmoe-6">
          <mxGeometry x="250" y="520" width="120" height="60" as="geometry" />
        </mxCell>
        <mxCell id="rOLu9eMjw-gonEeQVmoe-25" value="(PR0006)&amp;nbsp;&lt;div&gt;Web Services&lt;/div&gt;" style="rounded=1;html=1;whiteSpace=wrap;" vertex="1" parent="rOLu9eMjw-gonEeQVmoe-6">
          <mxGeometry x="640" y="340" width="120" height="60" as="geometry" />
        </mxCell>
        <mxCell id="rOLu9eMjw-gonEeQVmoe-26" value="Gestion de redes sociales&lt;div&gt;&lt;br&gt;&lt;/div&gt;&lt;div style=&quot;&quot;&gt;Lanzamiento de Marca&lt;/div&gt;&lt;div style=&quot;&quot;&gt;&lt;br&gt;&lt;/div&gt;&lt;div style=&quot;&quot;&gt;Desarrollo de Marca&lt;/div&gt;&lt;div style=&quot;&quot;&gt;&lt;br&gt;&lt;/div&gt;&lt;div style=&quot;&quot;&gt;Posicionamiento de Mercado&lt;/div&gt;" style="text;html=1;align=left;verticalAlign=top;whiteSpace=wrap;rounded=0;" vertex="1" parent="rOLu9eMjw-gonEeQVmoe-6">
          <mxGeometry x="30" y="100" width="180" height="340" as="geometry" />
        </mxCell>
        <mxCell id="rOLu9eMjw-gonEeQVmoe-27" value="Gestion de redes sociales&lt;div&gt;&lt;br&gt;&lt;/div&gt;&lt;div style=&quot;&quot;&gt;Lanzamiento de Marca&lt;/div&gt;&lt;div style=&quot;&quot;&gt;&lt;br&gt;&lt;/div&gt;&lt;div style=&quot;&quot;&gt;Desarrollo de Marca&lt;/div&gt;&lt;div style=&quot;&quot;&gt;&lt;br&gt;&lt;/div&gt;&lt;div style=&quot;&quot;&gt;Posicionamiento de Mercado&lt;/div&gt;" style="text;html=1;align=left;verticalAlign=top;whiteSpace=wrap;rounded=0;" vertex="1" parent="rOLu9eMjw-gonEeQVmoe-6">
          <mxGeometry x="800" y="80" width="180" height="340" as="geometry" />
        </mxCell>
        <mxCell id="rOLu9eMjw-gonEeQVmoe-28" value="Control" style="swimlane;fillColor=#FFC000;" vertex="1" parent="rOLu9eMjw-gonEeQVmoe-6">
          <mxGeometry x="20" y="710" width="970" height="120" as="geometry" />
        </mxCell>
        <mxCell id="rOLu9eMjw-gonEeQVmoe-29" value="Soporte" style="swimlane;fillColor=#FFC000;" vertex="1" parent="rOLu9eMjw-gonEeQVmoe-1">
          <mxGeometry x="60" y="790" width="540" height="80" as="geometry">
            <mxRectangle x="60" y="790" width="80" height="30" as="alternateBounds" />
          </mxGeometry>
        </mxCell>
        <mxCell id="rOLu9eMjw-gonEeQVmoe-30" value="Necesidades de mercado" style="swimlane;whiteSpace=wrap;html=1;fillColor=#FFC000;strokeColor=#000000;" vertex="1" parent="rOLu9eMjw-gonEeQVmoe-1">
          <mxGeometry x="-150" y="190" width="200" height="680" as="geometry" />
        </mxCell>
      </root>
    </mxGraphModel>
  </diagram>
  <diagram id="MbDG0-9gW3XSiTttbU3-" name="Página-3">
    <mxGraphModel dx="1434" dy="772" grid="1" gridSize="10" guides="1" tooltips="1" connect="1" arrows="1" fold="1" page="1" pageScale="1" pageWidth="850" pageHeight="1100" math="0" shadow="0">
      <root>
        <mxCell id="0" />
        <mxCell id="1" parent="0" />
        <mxCell id="EFEHwVIPuJZlkF2s-76Y-3" value="Gestión de Ganado" style="ellipse;whiteSpace=wrap;html=1;aspect=fixed;" vertex="1" parent="1">
          <mxGeometry x="280" y="70" width="140" height="140" as="geometry" />
        </mxCell>
        <mxCell id="EFEHwVIPuJZlkF2s-76Y-4" value="Gestión de Maquinaria Forestal" style="ellipse;whiteSpace=wrap;html=1;aspect=fixed;" vertex="1" parent="1">
          <mxGeometry x="590" y="230" width="140" height="140" as="geometry" />
        </mxCell>
        <mxCell id="EFEHwVIPuJZlkF2s-76Y-5" value="Gestión de Maquinaria Agrícola" style="ellipse;whiteSpace=wrap;html=1;aspect=fixed;" vertex="1" parent="1">
          <mxGeometry x="210" y="230" width="140" height="140" as="geometry" />
        </mxCell>
        <mxCell id="EFEHwVIPuJZlkF2s-76Y-6" value="Gestión Forestal" style="ellipse;whiteSpace=wrap;html=1;aspect=fixed;" vertex="1" parent="1">
          <mxGeometry x="510" y="70" width="140" height="140" as="geometry" />
        </mxCell>
        <mxCell id="EFEHwVIPuJZlkF2s-76Y-7" value="Finanzas" style="ellipse;whiteSpace=wrap;html=1;aspect=fixed;" vertex="1" parent="1">
          <mxGeometry x="480" y="470" width="140" height="140" as="geometry" />
        </mxCell>
        <mxCell id="EFEHwVIPuJZlkF2s-76Y-8" value="Arrendamientos" style="ellipse;whiteSpace=wrap;html=1;aspect=fixed;" vertex="1" parent="1">
          <mxGeometry x="270" y="470" width="140" height="140" as="geometry" />
        </mxCell>
        <mxCell id="EFEHwVIPuJZlkF2s-76Y-9" value="Gestión Campos de Pastoreo" style="ellipse;whiteSpace=wrap;html=1;aspect=fixed;" vertex="1" parent="1">
          <mxGeometry x="110" y="70" width="140" height="140" as="geometry" />
        </mxCell>
      </root>
    </mxGraphModel>
  </diagram>
  <diagram id="ytr2BMaVXfbYTs0FCxOI" name="Página-4">
    <mxGraphModel dx="1434" dy="772" grid="1" gridSize="10" guides="1" tooltips="1" connect="1" arrows="1" fold="1" page="1" pageScale="1" pageWidth="850" pageHeight="1100" math="0" shadow="0">
      <root>
        <mxCell id="0" />
        <mxCell id="1" parent="0" />
        <mxCell id="RgKo3ijeaNrmKTKX0QNi-1" value="FInca San Juan Bosco" style="swimlane;" vertex="1" parent="1">
          <mxGeometry x="90" y="130" width="1080" height="740" as="geometry">
            <mxRectangle x="90" y="130" width="160" height="30" as="alternateBounds" />
          </mxGeometry>
        </mxCell>
        <mxCell id="RgKo3ijeaNrmKTKX0QNi-2" value="Necesidades" style="swimlane;" vertex="1" parent="RgKo3ijeaNrmKTKX0QNi-1">
          <mxGeometry y="20" width="120" height="530" as="geometry">
            <mxRectangle y="20" width="110" height="30" as="alternateBounds" />
          </mxGeometry>
        </mxCell>
        <mxCell id="Gm2ne_nIl8tjc7_DbAiH-1" value="Ganaderia" style="rounded=0;whiteSpace=wrap;html=1;" vertex="1" parent="RgKo3ijeaNrmKTKX0QNi-2">
          <mxGeometry x="10" y="60" width="100" height="20" as="geometry" />
        </mxCell>
        <mxCell id="Gm2ne_nIl8tjc7_DbAiH-2" value="Maderas" style="rounded=0;whiteSpace=wrap;html=1;" vertex="1" parent="RgKo3ijeaNrmKTKX0QNi-2">
          <mxGeometry x="10" y="120" width="100" height="20" as="geometry" />
        </mxCell>
        <mxCell id="Gm2ne_nIl8tjc7_DbAiH-4" value="Valor Generado" style="swimlane;" vertex="1" parent="RgKo3ijeaNrmKTKX0QNi-1">
          <mxGeometry x="950" y="20" width="130" height="530" as="geometry">
            <mxRectangle x="950" y="20" width="120" height="30" as="alternateBounds" />
          </mxGeometry>
        </mxCell>
        <mxCell id="z2PNZBZcIhWz65c71THJ-8" value="Ganado" style="rounded=0;whiteSpace=wrap;html=1;" vertex="1" parent="Gm2ne_nIl8tjc7_DbAiH-4">
          <mxGeometry x="10" y="60" width="100" height="20" as="geometry" />
        </mxCell>
        <mxCell id="z2PNZBZcIhWz65c71THJ-10" value="Madera Aserrada" style="rounded=0;whiteSpace=wrap;html=1;" vertex="1" parent="Gm2ne_nIl8tjc7_DbAiH-4">
          <mxGeometry x="10" y="255" width="100" height="20" as="geometry" />
        </mxCell>
        <mxCell id="z2PNZBZcIhWz65c71THJ-11" value="Madera Semi Acabada" style="rounded=0;whiteSpace=wrap;html=1;" vertex="1" parent="Gm2ne_nIl8tjc7_DbAiH-4">
          <mxGeometry x="10" y="200" width="100" height="40" as="geometry" />
        </mxCell>
        <mxCell id="z2PNZBZcIhWz65c71THJ-17" value="Trocilla para Leña" style="rounded=0;whiteSpace=wrap;html=1;" vertex="1" parent="Gm2ne_nIl8tjc7_DbAiH-4">
          <mxGeometry x="10" y="380" width="100" height="20" as="geometry" />
        </mxCell>
        <mxCell id="z2PNZBZcIhWz65c71THJ-16" value="Leña" style="rounded=0;whiteSpace=wrap;html=1;" vertex="1" parent="Gm2ne_nIl8tjc7_DbAiH-4">
          <mxGeometry x="10" y="350" width="100" height="20" as="geometry" />
        </mxCell>
        <mxCell id="z2PNZBZcIhWz65c71THJ-15" value="Tarimas" style="rounded=0;whiteSpace=wrap;html=1;" vertex="1" parent="Gm2ne_nIl8tjc7_DbAiH-4">
          <mxGeometry x="10" y="320" width="100" height="20" as="geometry" />
        </mxCell>
        <mxCell id="z2PNZBZcIhWz65c71THJ-13" value="Madera Seca" style="rounded=0;whiteSpace=wrap;html=1;" vertex="1" parent="Gm2ne_nIl8tjc7_DbAiH-4">
          <mxGeometry x="10" y="290" width="100" height="20" as="geometry" />
        </mxCell>
        <mxCell id="z2PNZBZcIhWz65c71THJ-12" value="Animales de desecho" style="rounded=0;whiteSpace=wrap;html=1;" vertex="1" parent="Gm2ne_nIl8tjc7_DbAiH-4">
          <mxGeometry x="10" y="90" width="100" height="40" as="geometry" />
        </mxCell>
        <mxCell id="z2PNZBZcIhWz65c71THJ-29" value="Arrendamiento de tierras" style="rounded=0;whiteSpace=wrap;html=1;" vertex="1" parent="Gm2ne_nIl8tjc7_DbAiH-4">
          <mxGeometry x="10" y="450" width="100" height="40" as="geometry" />
        </mxCell>
        <mxCell id="z2PNZBZcIhWz65c71THJ-28" value="Otros" style="rounded=0;whiteSpace=wrap;html=1;" vertex="1" parent="Gm2ne_nIl8tjc7_DbAiH-4">
          <mxGeometry x="10" y="500" width="100" height="20" as="geometry" />
        </mxCell>
        <mxCell id="z2PNZBZcIhWz65c71THJ-1" value="Estratégicos" style="swimlane;" vertex="1" parent="RgKo3ijeaNrmKTKX0QNi-1">
          <mxGeometry x="120" y="20" width="830" height="130" as="geometry">
            <mxRectangle x="120" y="20" width="110" height="30" as="alternateBounds" />
          </mxGeometry>
        </mxCell>
        <mxCell id="z2PNZBZcIhWz65c71THJ-2" value="Operativos" style="swimlane;" vertex="1" parent="RgKo3ijeaNrmKTKX0QNi-1">
          <mxGeometry x="120" y="150" width="830" height="200" as="geometry" />
        </mxCell>
        <mxCell id="z2PNZBZcIhWz65c71THJ-5" value="Soporte" style="swimlane;" vertex="1" parent="RgKo3ijeaNrmKTKX0QNi-1">
          <mxGeometry x="120" y="350" width="830" height="200" as="geometry" />
        </mxCell>
        <mxCell id="z2PNZBZcIhWz65c71THJ-6" value="Control" style="swimlane;" vertex="1" parent="1">
          <mxGeometry x="90" y="680" width="1080" height="190" as="geometry" />
        </mxCell>
      </root>
    </mxGraphModel>
  </diagram>
</mxfile>
